<svg id="Group_560" data-name="Group 560" xmlns="http://www.w3.org/2000/svg" xmlns:xlink="http://www.w3.org/1999/xlink" width="178.051" height="177.2" viewBox="0 0 178.051 177.2">
  <defs>
    <linearGradient id="linear-gradient" x1="0.554" y1="0.572" x2="-0.237" y2="-0.487" gradientUnits="objectBoundingBox">
      <stop offset="0" stop-color="#59bdef"/>
      <stop offset="1" stop-color="#7bdaff"/>
    </linearGradient>
    <linearGradient id="linear-gradient-2" y1="0.5" x2="1" y2="0.5" gradientUnits="objectBoundingBox">
      <stop offset="0" stop-color="#2573ba"/>
      <stop offset="1" stop-color="#0063ad"/>
    </linearGradient>
    <linearGradient id="linear-gradient-3" y1="0.5" x2="1" y2="0.5" gradientUnits="objectBoundingBox">
      <stop offset="0" stop-color="#3a9bd5"/>
      <stop offset="1" stop-color="#2573ba"/>
    </linearGradient>
    <linearGradient id="linear-gradient-7" y1="0.5" x2="2.597" y2="0.5" gradientUnits="objectBoundingBox">
      <stop offset="0" stop-color="#3a9bd5"/>
      <stop offset="0.522" stop-color="#2f87c7"/>
      <stop offset="1" stop-color="#297bbf"/>
    </linearGradient>
    <linearGradient id="linear-gradient-8" x1="-1.774" y1="3.037" x2="-0.169" y2="3.344" xlink:href="#linear-gradient"/>
    <radialGradient id="radial-gradient" cx="0.127" cy="0.537" r="0.968" gradientTransform="matrix(0.516, -0.783, 0.65, 0.622, 56.119, 36.985)" gradientUnits="objectBoundingBox">
      <stop offset="0" stop-color="#fce586"/>
      <stop offset="0.227" stop-color="#fcdb7b"/>
      <stop offset="0.616" stop-color="#fccf6f"/>
      <stop offset="1" stop-color="#fccc6b"/>
    </radialGradient>
    <radialGradient id="radial-gradient-2" cx="0.775" cy="1.208" r="3.504" gradientTransform="matrix(0.551, -0.298, 0.172, 0.955, 40.945, 18.197)" xlink:href="#radial-gradient"/>
    <radialGradient id="radial-gradient-3" cx="0.211" cy="0.214" r="1.237" gradientTransform="matrix(0.552, -0.294, 0.17, 0.956, 19.927, 3.661)" xlink:href="#radial-gradient"/>
    <radialGradient id="radial-gradient-4" cx="0.773" cy="1.21" r="3.504" gradientTransform="matrix(0.552, -0.294, 0.17, 0.956, 23.671, 4.508)" xlink:href="#radial-gradient"/>
    <radialGradient id="radial-gradient-5" cx="0.211" cy="0.214" r="1.237" gradientTransform="matrix(0.552, -0.294, 0.17, 0.956, 19.933, 3.673)" xlink:href="#radial-gradient"/>
    <radialGradient id="radial-gradient-6" cx="0.773" cy="1.21" r="3.504" gradientTransform="matrix(0.552, -0.294, 0.17, 0.956, 23.678, 4.522)" xlink:href="#radial-gradient"/>
    <radialGradient id="radial-gradient-7" cx="0.784" cy="0.21" r="0.714" gradientTransform="matrix(0.516, 0.955, -1.653, 0.298, -39.385, -59.272)" xlink:href="#radial-gradient"/>
    <radialGradient id="radial-gradient-8" cx="-0.208" cy="0.775" r="2.023" gradientTransform="matrix(0.516, 0.955, -1.653, 0.298, -45.513, -70.726)" xlink:href="#radial-gradient"/>
    <radialGradient id="radial-gradient-9" cx="0.784" cy="0.21" r="0.714" gradientTransform="matrix(0.516, 0.955, -1.653, 0.298, -39.889, -59.472)" xlink:href="#radial-gradient"/>
    <radialGradient id="radial-gradient-10" cx="0.773" cy="1.21" r="3.504" gradientTransform="matrix(0.552, -0.294, 0.17, 0.956, 23.61, 4.435)" xlink:href="#radial-gradient"/>
    <radialGradient id="radial-gradient-11" cx="0.784" cy="0.21" r="0.714" gradientTransform="matrix(0.516, 0.955, -1.653, 0.298, -39.618, -59.423)" xlink:href="#radial-gradient"/>
    <radialGradient id="radial-gradient-12" cx="0.773" cy="1.21" r="3.504" gradientTransform="matrix(0.552, -0.294, 0.17, 0.956, 23.576, 4.46)" xlink:href="#radial-gradient"/>
    <radialGradient id="radial-gradient-13" cx="0.211" cy="0.214" r="1.237" gradientTransform="matrix(0.552, -0.294, 0.17, 0.956, 19.846, 3.631)" xlink:href="#radial-gradient"/>
    <radialGradient id="radial-gradient-14" cx="0.773" cy="1.21" r="3.504" gradientTransform="matrix(0.552, -0.294, 0.17, 0.956, 23.574, 4.472)" xlink:href="#radial-gradient"/>
    <radialGradient id="radial-gradient-15" cx="0.784" cy="0.21" r="0.714" gradientTransform="matrix(0.516, 0.955, -1.653, 0.298, -39.437, -59.501)" xlink:href="#radial-gradient"/>
    <radialGradient id="radial-gradient-16" cx="0.773" cy="1.21" r="3.504" gradientTransform="matrix(0.552, -0.294, 0.17, 0.956, 23.593, 4.493)" xlink:href="#radial-gradient"/>
    <radialGradient id="radial-gradient-17" cx="0.247" cy="0.133" r="1.186" gradientTransform="matrix(0.609, -0.092, 0.056, 0.996, 6.666, 0.644)" xlink:href="#radial-gradient"/>
    <radialGradient id="radial-gradient-18" cx="0.686" cy="1.259" r="3.36" gradientTransform="matrix(0.609, -0.092, 0.056, 0.996, 8.001, 0.802)" xlink:href="#radial-gradient"/>
    <radialGradient id="radial-gradient-19" cx="0.784" cy="0.21" r="0.714" gradientTransform="matrix(0.516, 0.955, -1.653, 0.298, -43.001, -4.773)" xlink:href="#radial-gradient"/>
    <radialGradient id="radial-gradient-20" cx="0.539" cy="1.197" r="2.868" gradientTransform="matrix(0.753, 0.215, -0.166, 0.977, -8.227, 0.88)" xlink:href="#radial-gradient"/>
    <radialGradient id="radial-gradient-21" cx="0.137" cy="0.499" r="1.017" gradientTransform="matrix(0.526, -0.727, 0.556, 0.687, 51.62, 28.279)" xlink:href="#radial-gradient"/>
    <radialGradient id="radial-gradient-22" cx="0.98" cy="0.816" r="2.882" gradientTransform="matrix(0.526, -0.727, 0.556, 0.687, 61.106, 34.25)" xlink:href="#radial-gradient"/>
    <linearGradient id="linear-gradient-9" x1="-14.277" y1="1.875" x2="-12.848" y2="2.233" gradientUnits="objectBoundingBox">
      <stop offset="0" stop-color="#2573ba"/>
      <stop offset="0.907" stop-color="#0364ae"/>
      <stop offset="1" stop-color="#0063ad"/>
    </linearGradient>
    <linearGradient id="linear-gradient-10" x1="-27.927" y1="0.5" x2="-26.927" y2="0.5" gradientUnits="objectBoundingBox">
      <stop offset="0" stop-color="#0063ad"/>
      <stop offset="1" stop-color="#2573ba"/>
    </linearGradient>
    <linearGradient id="linear-gradient-11" x1="-14.706" y1="1.95" x2="-13.551" y2="1.95" gradientUnits="objectBoundingBox">
      <stop offset="0" stop-color="#7bdaff"/>
      <stop offset="1" stop-color="#59bdef"/>
    </linearGradient>
  </defs>
  <g id="Group_540" data-name="Group 540" transform="translate(12.826 60.97)">
    <g id="Group_534" data-name="Group 534">
      <path id="Path_304" data-name="Path 304" d="M306.8,208.759l-14.815-8.552,11.772-6.8,14.815,8.552Z" transform="translate(-286.418 -173.633)" fill="#041860" opacity="0.6"/>
      <path id="Path_305" data-name="Path 305" d="M305.591,210.94l-20.966-12.1,16.764-9.679,20.966,12.1Zm-19.954-12.1,19.954,11.519,15.753-9.093-19.954-11.519Z" transform="translate(-284.625 -172.597)" fill="#fff"/>
      <path id="Path_306" data-name="Path 306" d="M306.8,182.616l-14.815-8.552,11.772-6.8,14.815,8.552Z" transform="translate(-286.418 -167.267)" fill="url(#linear-gradient)"/>
      <path id="Path_307" data-name="Path 307" d="M323.345,187.746v-9.175l-11.772,6.8v9.175Z" transform="translate(-291.187 -170.019)" fill="url(#linear-gradient-2)"/>
      <path id="Path_308" data-name="Path 308" d="M291.99,176.251v9.175l14.815,8.552V184.8Z" transform="translate(-286.418 -169.454)" fill="url(#linear-gradient-3)"/>
    </g>
    <g id="Group_539" data-name="Group 539" transform="translate(8.268 4.651)">
      <g id="Group_535" data-name="Group 535">
        <path id="Path_309" data-name="Path 309" d="M301.967,173.414l-6.413,3.7V179.1l1.9,1.1v-1.985l6.413-3.7Z" transform="translate(-295.554 -173.414)" fill="#fff"/>
        <path id="Path_310" data-name="Path 310" d="M307.352,176.522l-6.413,3.7v1.985l1.9,1.1v-1.985l6.413-3.7Z" transform="translate(-296.865 -174.171)" fill="#fff"/>
        <path id="Path_311" data-name="Path 311" d="M312.744,179.634l-6.413,3.7v1.985l1.9,1.1v-1.985l6.413-3.7Z" transform="translate(-298.178 -174.929)" fill="#fff"/>
      </g>
      <g id="Group_536" data-name="Group 536">
        <path id="Path_312" data-name="Path 312" d="M304.031,173.414v.8l1.223.692.68-.393Z" transform="translate(-297.618 -173.414)" fill="#a9ebff"/>
        <path id="Path_313" data-name="Path 313" d="M296.243,180.39l-.69.41,1.9,1.1v-.826Z" transform="translate(-295.554 -175.113)" fill="#a9ebff"/>
        <path id="Path_314" data-name="Path 314" d="M301.967,173.414l-6.413,3.7V179.1l.69-.41V177.52l5.727-3.306Z" transform="translate(-295.554 -173.414)" fill="url(#linear-gradient-2)"/>
      </g>
      <g id="Group_537" data-name="Group 537" transform="translate(4.074 2.351)">
        <path id="Path_315" data-name="Path 315" d="M309.417,176.522v.8l1.223.692.68-.393Z" transform="translate(-303.003 -176.522)" fill="#a9ebff"/>
        <path id="Path_316" data-name="Path 316" d="M301.629,183.5l-.69.41,1.9,1.1v-.826Z" transform="translate(-300.939 -178.221)" fill="#a9ebff"/>
        <path id="Path_317" data-name="Path 317" d="M307.352,176.522l-6.413,3.7v1.985l.69-.41v-1.171l5.727-3.306Z" transform="translate(-300.939 -176.522)" fill="url(#linear-gradient-2)"/>
      </g>
      <g id="Group_538" data-name="Group 538" transform="translate(8.153 4.705)">
        <path id="Path_318" data-name="Path 318" d="M314.808,179.634v.8l1.223.692.68-.393Z" transform="translate(-308.395 -179.634)" fill="#a9ebff"/>
        <path id="Path_319" data-name="Path 319" d="M307.02,186.61l-.69.41,1.9,1.1v-.826Z" transform="translate(-306.33 -181.333)" fill="#a9ebff"/>
        <path id="Path_320" data-name="Path 320" d="M312.744,179.634l-6.413,3.7v1.985l.69-.41V183.74l5.727-3.306Z" transform="translate(-306.33 -179.634)" fill="url(#linear-gradient-2)"/>
      </g>
    </g>
  </g>
  <g id="Group_557" data-name="Group 557" transform="translate(42.211 0)">
    <path id="Path_321" data-name="Path 321" d="M391.389,295.609c-17.375,0-34.747-3.817-47.974-11.455-12.863-7.427-19.947-17.316-19.947-27.845s7.084-20.418,19.946-27.843c26.45-15.272,69.494-15.273,95.948,0,12.863,7.426,19.947,17.314,19.947,27.844s-7.083,20.418-19.945,27.845h0C426.137,291.791,408.76,295.609,391.389,295.609Zm0-78.1c-17.283,0-34.564,3.8-47.72,11.394-12.7,7.331-19.692,17.063-19.692,27.4s6.993,20.075,19.693,27.407c26.314,15.192,69.129,15.193,95.443,0h0c12.7-7.332,19.692-17.065,19.692-27.406s-6.994-20.074-19.693-27.405C425.95,221.309,408.667,217.51,391.386,217.51Z" transform="translate(-323.467 -118.409)" fill="#fff"/>
    <ellipse id="Ellipse_39" data-name="Ellipse 39" cx="48.512" cy="28.009" rx="48.512" ry="28.009" transform="translate(19.408 109.892)" fill="#13247a" opacity="0.5"/>
    <g id="Group_542" data-name="Group 542" transform="translate(36.23)">
      <path id="Path_322" data-name="Path 322" d="M436.337,115.763l-49.667-28.7a2.11,2.11,0,0,0-2.1-.191L381.2,88.839l2.2,1.33V206.541a7.833,7.833,0,0,0,3.27,6.249l49.092,28.368-.7,2.491,3.4-1.977,0,0a2.876,2.876,0,0,0,1.152-2.654v-117A7.832,7.832,0,0,0,436.337,115.763Z" transform="translate(-373.754 -86.672)" fill="url(#linear-gradient-7)"/>
      <path id="Path_323" data-name="Path 323" d="M432.49,244.14l-49.667-28.7a7.833,7.833,0,0,1-3.27-6.249v-117c0-2.408,1.464-3.515,3.27-2.472l49.667,28.7a7.835,7.835,0,0,1,3.27,6.249v117C435.76,244.077,434.3,245.183,432.49,244.14Z" transform="translate(-373.353 -87.317)" fill="url(#linear-gradient-8)"/>
      <path id="Path_324" data-name="Path 324" d="M435.76,242.645l-56.208-32.476V93l56.208,32.476Z" transform="translate(-373.353 -88.213)" fill="#0f65b2"/>
      <g id="Group_541" data-name="Group 541" transform="translate(0 10.013)">
        <path id="Path_325" data-name="Path 325" d="M424.858,246.649l-50.167-28.985a6.084,6.084,0,0,1-3.04-5.268V102.206a2,2,0,0,1,3-1.732l50.167,28.985a6.084,6.084,0,0,1,3.04,5.268v110.19A2,2,0,0,1,424.858,246.649Z" transform="translate(-371.429 -99.98)" fill="#fff" opacity="0.4"/>
        <path id="Path_326" data-name="Path 326" d="M425.787,247.071a2.209,2.209,0,0,1-1.111-.3l-50.167-28.985a6.323,6.323,0,0,1-3.151-5.459V102.134a2.222,2.222,0,0,1,3.334-1.924L424.859,129.2a6.324,6.324,0,0,1,3.151,5.459v110.19a2.233,2.233,0,0,1-2.223,2.226ZM373.581,100.352a1.786,1.786,0,0,0-1.779,1.782v110.19a5.881,5.881,0,0,0,2.929,5.076L424.9,246.387a1.78,1.78,0,0,0,2.67-1.542V134.655a5.882,5.882,0,0,0-2.929-5.076L374.47,100.593A1.779,1.779,0,0,0,373.581,100.352Z" transform="translate(-371.358 -99.908)" fill="#fff"/>
      </g>
      <path id="Path_327" data-name="Path 327" d="M419.073,113.513l-7.426-4.287a1.092,1.092,0,0,1-.457-.872h0c0-.336.2-.491.457-.345l7.426,4.287a1.1,1.1,0,0,1,.456.872h0C419.529,113.5,419.325,113.659,419.073,113.513Z" transform="translate(-381.057 -91.854)" fill="#0063ad"/>
    </g>
    <path id="Path_328" data-name="Path 328" d="M412.5,180.972c1.017.587,1.841-.036,1.841-1.392V138.892a4.411,4.411,0,0,0-1.841-3.518l-40.69-23.492a6.939,6.939,0,0,0-.157,1.469v44.04Z" transform="translate(-335.2 -92.81)" fill="#041860" opacity="0.2"/>
    <g id="Group_543" data-name="Group 543" transform="translate(28.353 69.901)">
      <path id="Path_329" data-name="Path 329" d="M379.775,183.278l.008,1.011a6.622,6.622,0,0,0-3.28-.489,16,16,0,0,0-11.978,8.135,6.679,6.679,0,0,0-.757,3.158l-.933-.309,1,1.48,0,0c.834,1.3,2.529,2.018,4.875,1.847a16,16,0,0,0,11.978-8.135c1.005-2.078.982-3.891.132-5.143h0Z" transform="translate(-361.406 -180.096)" fill="#f4a856"/>
      <path id="Path_330" data-name="Path 330" d="M379.439,187.843a16,16,0,0,1-11.978,8.135c-4.6.337-6.707-2.76-4.7-6.916a16,16,0,0,1,11.978-8.135C379.347,180.59,381.45,183.687,379.439,187.843Z" transform="translate(-361.203 -179.518)" fill="#fccc6b"/>
      <path id="Path_331" data-name="Path 331" d="M379.439,187.843a16,16,0,0,1-11.978,8.135c-4.6.337-6.707-2.76-4.7-6.916a16,16,0,0,1,11.978-8.135C379.347,180.59,381.45,183.687,379.439,187.843Z" transform="translate(-361.203 -179.518)" fill="url(#radial-gradient)"/>
      <path id="Path_332" data-name="Path 332" d="M374.434,192.951a12.554,12.554,0,0,1-5.941,2.269c-1.9.139-3.369-.4-4.133-1.527s-.726-2.688.105-4.4a13.552,13.552,0,0,1,10.128-6.878c1.9-.138,3.369.4,4.132,1.527s.725,2.687-.1,4.4A12.49,12.49,0,0,1,374.434,192.951Zm-5.684-8.131a12.3,12.3,0,0,0-4.128,4.544c-.8,1.658-.844,3.161-.117,4.231s2.139,1.585,3.976,1.451a13.357,13.357,0,0,0,9.984-6.781c.8-1.658.844-3.161.117-4.231s-2.138-1.585-3.975-1.45A12.372,12.372,0,0,0,368.749,184.82Z" transform="translate(-361.644 -179.88)" fill="#f4a856"/>
      <ellipse id="Ellipse_40" data-name="Ellipse 40" cx="8.596" cy="4.963" rx="8.596" ry="4.963" transform="translate(0 9.659) rotate(-34.182)" fill="url(#radial-gradient-2)"/>
      <path id="Path_333" data-name="Path 333" d="M364.8,189.7a13.433,13.433,0,0,1,10.055-6.83,4.4,4.4,0,0,1,3.932,1.323c-.673-1.16-2.126-1.813-4.163-1.663a13.432,13.432,0,0,0-10.056,6.83c-.89,1.838-.819,3.429.011,4.482A4.393,4.393,0,0,1,364.8,189.7Z" transform="translate(-361.673 -179.908)" fill="#f4a856"/>
      <path id="Path_334" data-name="Path 334" d="M379.39,188.048a16,16,0,0,1-11.978,8.135c-2.2.161-3.832-.465-4.713-1.616.812,1.355,2.531,2.114,4.932,1.938a16,16,0,0,0,11.978-8.135c1.048-2.167.977-4.045.017-5.3C380.37,184.315,380.352,186.059,379.39,188.048Z" transform="translate(-361.373 -180.046)" fill="#fce586"/>
    </g>
    <path id="Path_335" data-name="Path 335" d="M379.628,192.759a12.845,12.845,0,0,0,2.454-3.367c1.005-2.078.982-3.891.132-5.143l-1.052-1.549c-.014-.021-.034-.039-.049-.061s-.043-.064-.067-.1c.006.011.01.023.016.033-.875-1.17-2.507-1.813-4.73-1.65a15.266,15.266,0,0,0-7.8,3.243l8.29,8.589Z" transform="translate(-334.44 -109.617)" fill="#f4a856"/>
    <g id="Group_546" data-name="Group 546" transform="translate(10.277 11.606)">
      <path id="Path_336" data-name="Path 336" d="M399,136.329l-59.055-34.1a1.176,1.176,0,0,0-1.2-.1v0l-.878.512s.2.03.406.057a2.357,2.357,0,0,0-.166.921v40.688a4.408,4.408,0,0,0,1.841,3.518L399,181.927a1.78,1.78,0,0,0,.326.148v.461l.882-.514h0a1.629,1.629,0,0,0,.638-1.487V139.847A4.41,4.41,0,0,0,399,136.329Z" transform="translate(-337.25 -102.013)" fill="#fff"/>
      <path id="Path_337" data-name="Path 337" d="M397.949,182.587l-59.056-34.1a4.41,4.41,0,0,1-1.841-3.518V104.284c0-1.356.825-1.979,1.841-1.391l59.056,34.095a4.412,4.412,0,0,1,1.841,3.518v40.688C399.79,182.55,398.966,183.174,397.949,182.587Z" transform="translate(-337.052 -102.174)" fill="#84e4a4"/>
      <g id="Group_544" data-name="Group 544" transform="translate(43.292 31.119)">
        <path id="Path_338" data-name="Path 338" d="M394.279,148.956v-5.807l1.232.71a4.087,4.087,0,0,1,.607.423,2.8,2.8,0,0,1,.462.505,2.119,2.119,0,0,1,.3.635,2.69,2.69,0,0,1,.1.769q0,1.072-.741.775a2.255,2.255,0,0,1,.665.834,2.664,2.664,0,0,1,.224,1.119q0,.827-.358,1.048t-1.053-.178Zm.917-2.911.285.166c.269.155.453.194.555.12s.152-.27.152-.585a1.611,1.611,0,0,0-.051-.427.884.884,0,0,0-.168-.327,1.476,1.476,0,0,0-.263-.253,3.992,3.992,0,0,0-.384-.247l-.127-.074Zm0,2.694.336.194q.41.237.567.107c.105-.086.158-.3.158-.638a1.852,1.852,0,0,0-.178-.865,1.48,1.48,0,0,0-.6-.58l-.287-.167Z" transform="translate(-394.279 -143.149)" fill="#fff"/>
        <path id="Path_339" data-name="Path 339" d="M398.486,151.575l1.022-5.217.956.551,1.019,6.4-.852-.492-.2-1.466-.87-.5-.207,1.229Zm1.168-1.364.672.389-.336-2.58Z" transform="translate(-395.303 -143.93)" fill="#fff"/>
        <path id="Path_340" data-name="Path 340" d="M403.1,154.05v-5.808l.631.364,1.232,4v-3.29l.759.438v5.808l-.6-.347-1.244-4.175V154.5Z" transform="translate(-396.427 -144.389)" fill="#fff"/>
        <path id="Path_341" data-name="Path 341" d="M407.561,156.625v-5.808l.917.529v2.522l.989-1.951.874.5-.962,2.043,1.062,3.823-.912-.528-.868-3.233-.182.272v2.355Z" transform="translate(-397.513 -145.016)" fill="#fff"/>
      </g>
      <g id="Group_545" data-name="Group 545" transform="translate(5.095 38.259)">
        <path id="Path_342" data-name="Path 342" d="M355,160.557l-11.21-6.472v-1.5L355,159.059Z" transform="translate(-343.787 -152.587)" fill="#fff"/>
        <path id="Path_343" data-name="Path 343" d="M373.212,171.073,362,164.6v-1.5l11.21,6.472Z" transform="translate(-348.222 -155.147)" fill="#fff"/>
        <path id="Path_344" data-name="Path 344" d="M391.426,181.589l-11.21-6.472v-1.5l11.21,6.472Z" transform="translate(-352.657 -157.708)" fill="#fff"/>
        <path id="Path_345" data-name="Path 345" d="M409.641,192.105l-11.21-6.472v-1.5l11.21,6.472Z" transform="translate(-357.093 -160.269)" fill="#fff"/>
      </g>
      <path id="Path_346" data-name="Path 346" d="M397.949,136.988l-59.056-34.095c-1.017-.588-1.841.036-1.841,1.392v40.688a3.924,3.924,0,0,0,.087.757c3.142-2.272,15.918-9.3,40.322,4.168,8.885,4.9,16.314,4.254,22.33,1.045V140.506A4.412,4.412,0,0,0,397.949,136.988Z" transform="translate(-337.052 -102.174)" fill="#fff" opacity="0.2"/>
      <path id="Path_347" data-name="Path 347" d="M361.532,134.919a57.389,57.389,0,0,0,20.979-6.844l-43.618-25.182c-1.017-.588-1.841.036-1.841,1.392v38.939C341.406,139.79,348.853,136.553,361.532,134.919Z" transform="translate(-337.052 -102.174)" fill="#fff" opacity="0.2"/>
    </g>
    <g id="Group_547" data-name="Group 547" transform="translate(27.677 136.858)">
      <path id="Path_348" data-name="Path 348" d="M380.538,274.43l-.564.837a6.62,6.62,0,0,0-2.428-2.259,16,16,0,0,0-14.479-.064,6.686,6.686,0,0,0-2.41,2.176l-.595-.781-.008,1.788,0,0c-.045,1.542.944,3.095,2.976,4.28a16,16,0,0,0,14.48.065c2-1.145,3.01-2.654,3.017-4.167h0Z" transform="translate(-360.053 -268.472)" fill="#f4a856"/>
      <path id="Path_349" data-name="Path 349" d="M377.524,277.7a16,16,0,0,1-14.48-.064c-3.988-2.326-3.971-6.069.038-8.36a16,16,0,0,1,14.479.065C381.549,271.67,381.533,275.413,377.524,277.7Z" transform="translate(-360.056 -267.58)" fill="#fccc6b"/>
      <path id="Path_350" data-name="Path 350" d="M377.524,277.7a16,16,0,0,1-14.48-.064c-3.988-2.326-3.971-6.069.038-8.36a16,16,0,0,1,14.479.065C381.549,271.67,381.533,275.413,377.524,277.7Z" transform="translate(-360.056 -267.58)" fill="url(#radial-gradient-3)"/>
      <path id="Path_351" data-name="Path 351" d="M370.849,278.816a12.553,12.553,0,0,1-6.183-1.489c-1.647-.961-2.551-2.238-2.545-3.6s.921-2.627,2.577-3.573a13.552,13.552,0,0,1,12.242.055c1.647.961,2.551,2.238,2.545,3.6s-.921,2.627-2.577,3.572A12.486,12.486,0,0,1,370.849,278.816Zm-.09-9.921a12.31,12.31,0,0,0-5.975,1.414c-1.6.914-2.484,2.13-2.489,3.422s.867,2.518,2.458,3.446a13.359,13.359,0,0,0,12.07.054c1.6-.914,2.484-2.13,2.49-3.423s-.868-2.516-2.459-3.444A12.374,12.374,0,0,0,370.759,268.9Z" transform="translate(-360.557 -267.859)" fill="#f4a856"/>
      <path id="Path_352" data-name="Path 352" d="M376.894,277.333a13.434,13.434,0,0,1-12.156-.054c-3.348-1.953-3.334-5.1.031-7.018a13.434,13.434,0,0,1,12.156.054C380.273,272.268,380.259,275.41,376.894,277.333Z" transform="translate(-360.584 -267.885)" fill="url(#radial-gradient-4)"/>
      <path id="Path_353" data-name="Path 353" d="M364.768,270.672a13.434,13.434,0,0,1,12.156.054,4.394,4.394,0,0,1,2.494,3.314c.1-1.337-.729-2.7-2.493-3.726a13.434,13.434,0,0,0-12.156-.054c-1.773,1.013-2.615,2.366-2.525,3.7A4.392,4.392,0,0,1,364.768,270.672Z" transform="translate(-360.585 -267.885)" fill="#f4a856"/>
      <path id="Path_354" data-name="Path 354" d="M377.526,279.139a16,16,0,0,1-14.479-.065c-1.909-1.113-2.9-2.551-2.973-4-.1,1.577.891,3.175,2.971,4.388a16,16,0,0,0,14.48.064c2.09-1.195,3.093-2.783,3.01-4.361C380.447,276.615,379.445,278.043,377.526,279.139Z" transform="translate(-360.057 -269.405)" fill="#fce586"/>
    </g>
    <g id="Group_548" data-name="Group 548" transform="translate(29.435 134.349)">
      <path id="Path_355" data-name="Path 355" d="M382.862,271.113l-.565.838a6.617,6.617,0,0,0-2.428-2.259,16,16,0,0,0-14.48-.064,6.676,6.676,0,0,0-2.409,2.176l-.6-.781-.008,1.788,0,0c-.045,1.542.944,3.095,2.977,4.28a16,16,0,0,0,14.479.065c2-1.145,3.011-2.654,3.018-4.167h0Z" transform="translate(-362.377 -265.156)" fill="#f4a856"/>
      <path id="Path_356" data-name="Path 356" d="M379.847,274.387a16,16,0,0,1-14.479-.064c-3.988-2.327-3.972-6.069.037-8.36a16,16,0,0,1,14.479.065C383.872,268.354,383.856,272.1,379.847,274.387Z" transform="translate(-362.38 -264.264)" fill="#fccc6b"/>
      <path id="Path_357" data-name="Path 357" d="M379.847,274.387a16,16,0,0,1-14.479-.064c-3.988-2.327-3.972-6.069.037-8.36a16,16,0,0,1,14.479.065C383.872,268.354,383.856,272.1,379.847,274.387Z" transform="translate(-362.38 -264.264)" fill="url(#radial-gradient-5)"/>
      <path id="Path_358" data-name="Path 358" d="M373.172,275.5a12.55,12.55,0,0,1-6.182-1.489c-1.648-.961-2.551-2.238-2.546-3.6s.921-2.627,2.577-3.572a13.547,13.547,0,0,1,12.242.055c1.648.961,2.551,2.237,2.545,3.6s-.921,2.627-2.577,3.572A12.487,12.487,0,0,1,373.172,275.5Zm-.09-9.921a12.305,12.305,0,0,0-5.974,1.414c-1.6.914-2.484,2.13-2.49,3.422s.867,2.517,2.459,3.446a13.358,13.358,0,0,0,12.069.054c1.6-.914,2.484-2.13,2.49-3.423s-.867-2.516-2.459-3.444A12.372,12.372,0,0,0,373.082,265.579Z" transform="translate(-362.88 -264.542)" fill="#f4a856"/>
      <path id="Path_359" data-name="Path 359" d="M379.217,274.017a13.435,13.435,0,0,1-12.155-.054c-3.348-1.953-3.335-5.1.031-7.019a13.438,13.438,0,0,1,12.156.054C382.6,268.952,382.583,272.094,379.217,274.017Z" transform="translate(-362.908 -264.569)" fill="url(#radial-gradient-6)"/>
      <path id="Path_360" data-name="Path 360" d="M367.091,267.356a13.434,13.434,0,0,1,12.156.054,4.394,4.394,0,0,1,2.494,3.315c.1-1.337-.728-2.7-2.493-3.727a13.437,13.437,0,0,0-12.155-.054c-1.774,1.014-2.615,2.366-2.526,3.7A4.394,4.394,0,0,1,367.091,267.356Z" transform="translate(-362.909 -264.569)" fill="#f4a856"/>
      <path id="Path_361" data-name="Path 361" d="M379.849,275.823a16,16,0,0,1-14.479-.065c-1.909-1.113-2.9-2.551-2.973-4-.1,1.577.891,3.175,2.972,4.388a16,16,0,0,0,14.479.064c2.09-1.195,3.093-2.784,3.01-4.361C382.769,273.3,381.768,274.727,379.849,275.823Z" transform="translate(-362.38 -266.089)" fill="#fce586"/>
    </g>
    <g id="Group_549" data-name="Group 549" transform="translate(42.909 146.771)">
      <path id="Path_362" data-name="Path 362" d="M400.7,287.595l-.564.838a6.628,6.628,0,0,0-2.428-2.26,16,16,0,0,0-14.479-.064,6.667,6.667,0,0,0-2.41,2.176l-.6-.782-.008,1.788,0,0c-.046,1.542.944,3.095,2.976,4.28a16,16,0,0,0,14.479.065c2-1.145,3.011-2.654,3.018-4.167h0Z" transform="translate(-380.193 -281.592)" fill="#f4a856"/>
      <ellipse id="Ellipse_41" data-name="Ellipse 41" cx="5.911" cy="10.239" rx="5.911" ry="10.239" transform="translate(0 11.823) rotate(-89.743)" fill="#fccc6b"/>
      <ellipse id="Ellipse_42" data-name="Ellipse 42" cx="5.911" cy="10.239" rx="5.911" ry="10.239" transform="translate(0 11.823) rotate(-89.743)" fill="url(#radial-gradient-7)"/>
      <path id="Path_363" data-name="Path 363" d="M391.007,291.981a12.544,12.544,0,0,1-6.182-1.489c-1.648-.961-2.551-2.238-2.545-3.6s.921-2.627,2.577-3.573a13.551,13.551,0,0,1,12.242.055c1.648.961,2.551,2.238,2.545,3.6s-.921,2.627-2.577,3.572A12.485,12.485,0,0,1,391.007,291.981Zm-.09-9.921a12.308,12.308,0,0,0-5.974,1.414c-1.6.914-2.484,2.13-2.49,3.422s.867,2.518,2.459,3.446a13.358,13.358,0,0,0,12.069.054c1.6-.913,2.484-2.13,2.49-3.423s-.867-2.516-2.459-3.444A12.372,12.372,0,0,0,390.917,282.06Z" transform="translate(-380.697 -280.978)" fill="#f4a856"/>
      <ellipse id="Ellipse_43" data-name="Ellipse 43" cx="4.963" cy="8.596" rx="4.963" ry="8.596" transform="matrix(0.004, -1, 1, 0.004, 1.647, 10.881)" fill="url(#radial-gradient-8)"/>
      <path id="Path_364" data-name="Path 364" d="M384.926,283.837a13.435,13.435,0,0,1,12.156.054,4.394,4.394,0,0,1,2.494,3.314c.1-1.337-.728-2.7-2.493-3.726a13.433,13.433,0,0,0-12.155-.054c-1.773,1.013-2.615,2.366-2.526,3.7A4.394,4.394,0,0,1,384.926,283.837Z" transform="translate(-380.725 -281.005)" fill="#f4a856"/>
      <path id="Path_365" data-name="Path 365" d="M397.684,292.3a16,16,0,0,1-14.479-.065c-1.909-1.113-2.9-2.551-2.973-4-.1,1.577.892,3.175,2.972,4.388a16,16,0,0,0,14.479.064c2.09-1.195,3.093-2.783,3.01-4.361C400.6,289.78,399.6,291.208,397.684,292.3Z" transform="translate(-380.197 -282.525)" fill="#fce586"/>
    </g>
    <g id="Group_550" data-name="Group 550" transform="translate(22.434 150.322)">
      <path id="Path_366" data-name="Path 366" d="M373.632,292.289l-.565.838a6.611,6.611,0,0,0-2.428-2.259,16,16,0,0,0-14.48-.065,6.678,6.678,0,0,0-2.409,2.176l-.6-.782-.008,1.788,0,0c-.045,1.541.944,3.094,2.977,4.28a16,16,0,0,0,14.479.065c2-1.145,3.011-2.654,3.018-4.167h0Z" transform="translate(-353.128 -286.286)" fill="#f4a856"/>
      <ellipse id="Ellipse_44" data-name="Ellipse 44" cx="5.911" cy="10.239" rx="5.911" ry="10.239" transform="translate(0 11.823) rotate(-89.743)" fill="#fccc6b"/>
      <ellipse id="Ellipse_45" data-name="Ellipse 45" cx="5.911" cy="10.239" rx="5.911" ry="10.239" transform="translate(0 11.823) rotate(-89.743)" fill="url(#radial-gradient-9)"/>
      <path id="Path_367" data-name="Path 367" d="M363.942,296.676a12.542,12.542,0,0,1-6.182-1.49c-1.648-.961-2.551-2.238-2.546-3.6s.921-2.627,2.577-3.573a13.551,13.551,0,0,1,12.242.055c1.648.961,2.551,2.238,2.545,3.6s-.921,2.627-2.577,3.573A12.5,12.5,0,0,1,363.942,296.676Zm-.09-9.921a12.3,12.3,0,0,0-5.974,1.414c-1.6.913-2.484,2.129-2.49,3.422s.867,2.517,2.459,3.445a13.358,13.358,0,0,0,12.069.054c1.6-.913,2.484-2.129,2.49-3.422s-.867-2.517-2.459-3.445A12.372,12.372,0,0,0,363.852,286.755Z" transform="translate(-353.631 -285.672)" fill="#f4a856"/>
      <path id="Path_368" data-name="Path 368" d="M369.987,295.192a13.433,13.433,0,0,1-12.155-.055c-3.348-1.953-3.335-5.1.031-7.018a13.433,13.433,0,0,1,12.155.054C373.366,290.128,373.353,293.269,369.987,295.192Z" transform="translate(-353.66 -285.699)" fill="url(#radial-gradient-10)"/>
      <path id="Path_369" data-name="Path 369" d="M357.861,288.531a13.434,13.434,0,0,1,12.156.054,4.393,4.393,0,0,1,2.494,3.314c.1-1.337-.728-2.7-2.493-3.726a13.433,13.433,0,0,0-12.155-.054c-1.774,1.014-2.615,2.366-2.526,3.7A4.394,4.394,0,0,1,357.861,288.531Z" transform="translate(-353.66 -285.699)" fill="#f4a856"/>
      <path id="Path_370" data-name="Path 370" d="M370.619,297a16,16,0,0,1-14.479-.064c-1.909-1.114-2.9-2.551-2.973-4-.1,1.577.891,3.175,2.971,4.388a16,16,0,0,0,14.479.065c2.09-1.195,3.093-2.784,3.01-4.362C373.54,294.474,372.538,295.9,370.619,297Z" transform="translate(-353.131 -287.219)" fill="#fce586"/>
    </g>
    <g id="Group_551" data-name="Group 551" transform="translate(32.121 146.557)">
      <path id="Path_371" data-name="Path 371" d="M386.437,287.312l-.565.838a6.618,6.618,0,0,0-2.428-2.259,16,16,0,0,0-14.479-.065,6.682,6.682,0,0,0-2.41,2.176l-.6-.782-.008,1.788,0,0c-.045,1.542.944,3.095,2.977,4.28a16,16,0,0,0,14.479.064c2-1.145,3.011-2.654,3.018-4.166h0Z" transform="translate(-365.933 -281.309)" fill="#f4a856"/>
      <ellipse id="Ellipse_46" data-name="Ellipse 46" cx="5.911" cy="10.239" rx="5.911" ry="10.239" transform="translate(0 11.823) rotate(-89.743)" fill="#fccc6b"/>
      <ellipse id="Ellipse_47" data-name="Ellipse 47" cx="5.911" cy="10.239" rx="5.911" ry="10.239" transform="translate(0 11.823) rotate(-89.743)" fill="url(#radial-gradient-11)"/>
      <path id="Path_372" data-name="Path 372" d="M376.747,291.7a12.55,12.55,0,0,1-6.182-1.489c-1.648-.961-2.551-2.238-2.546-3.6s.921-2.627,2.577-3.573a13.551,13.551,0,0,1,12.242.055c1.648.961,2.551,2.238,2.545,3.6s-.921,2.627-2.577,3.573A12.5,12.5,0,0,1,376.747,291.7Zm-.09-9.921a12.307,12.307,0,0,0-5.974,1.414c-1.6.914-2.484,2.13-2.49,3.422s.867,2.517,2.459,3.446a13.358,13.358,0,0,0,12.069.054c1.6-.914,2.484-2.13,2.49-3.423s-.867-2.517-2.459-3.445A12.38,12.38,0,0,0,376.657,281.778Z" transform="translate(-366.437 -280.695)" fill="#f4a856"/>
      <path id="Path_373" data-name="Path 373" d="M382.792,290.215a13.433,13.433,0,0,1-12.155-.054c-3.348-1.953-3.335-5.1.031-7.018a13.433,13.433,0,0,1,12.155.054C386.171,285.151,386.158,288.292,382.792,290.215Z" transform="translate(-366.465 -280.722)" fill="url(#radial-gradient-12)"/>
      <path id="Path_374" data-name="Path 374" d="M370.666,283.554a13.434,13.434,0,0,1,12.156.054,4.394,4.394,0,0,1,2.494,3.315c.1-1.338-.728-2.7-2.493-3.727a13.433,13.433,0,0,0-12.155-.054c-1.774,1.014-2.615,2.366-2.526,3.7A4.394,4.394,0,0,1,370.666,283.554Z" transform="translate(-366.465 -280.722)" fill="#f4a856"/>
      <path id="Path_375" data-name="Path 375" d="M383.424,292.022a16,16,0,0,1-14.479-.065c-1.909-1.114-2.9-2.551-2.973-4-.1,1.577.891,3.175,2.971,4.388a16,16,0,0,0,14.479.065c2.09-1.195,3.093-2.784,3.01-4.361C386.345,289.5,385.343,290.926,383.424,292.022Z" transform="translate(-365.937 -282.242)" fill="#fce586"/>
    </g>
    <g id="Group_552" data-name="Group 552" transform="translate(34.788 144.557)">
      <path id="Path_376" data-name="Path 376" d="M389.937,284.607l-.564.838a6.627,6.627,0,0,0-2.428-2.259,16,16,0,0,0-14.479-.065,6.681,6.681,0,0,0-2.41,2.176l-.6-.782-.008,1.788,0,0c-.046,1.542.944,3.095,2.976,4.28a16,16,0,0,0,14.479.064c2-1.145,3.011-2.654,3.018-4.166h0Z" transform="translate(-369.452 -278.65)" fill="#f4a856"/>
      <path id="Path_377" data-name="Path 377" d="M386.922,287.881a16,16,0,0,1-14.479-.065c-3.988-2.326-3.972-6.069.037-8.359a16,16,0,0,1,14.479.064C390.947,281.848,390.931,285.591,386.922,287.881Z" transform="translate(-369.454 -277.758)" fill="#fccc6b"/>
      <path id="Path_378" data-name="Path 378" d="M386.922,287.881a16,16,0,0,1-14.479-.065c-3.988-2.326-3.972-6.069.037-8.359a16,16,0,0,1,14.479.064C390.947,281.848,390.931,285.591,386.922,287.881Z" transform="translate(-369.454 -277.758)" fill="url(#radial-gradient-13)"/>
      <path id="Path_379" data-name="Path 379" d="M380.247,288.994a12.553,12.553,0,0,1-6.182-1.489c-1.648-.962-2.551-2.238-2.545-3.6s.921-2.627,2.577-3.573a13.552,13.552,0,0,1,12.242.055c1.648.961,2.551,2.238,2.546,3.6s-.921,2.627-2.577,3.573A12.493,12.493,0,0,1,380.247,288.994Zm-.09-9.921a12.307,12.307,0,0,0-5.974,1.414c-1.6.914-2.484,2.13-2.49,3.422s.867,2.517,2.459,3.446a13.358,13.358,0,0,0,12.069.054c1.6-.914,2.484-2.13,2.49-3.423s-.867-2.517-2.459-3.445A12.38,12.38,0,0,0,380.157,279.073Z" transform="translate(-369.956 -278.036)" fill="#f4a856"/>
      <path id="Path_380" data-name="Path 380" d="M386.292,287.51a13.433,13.433,0,0,1-12.155-.055c-3.348-1.953-3.335-5.1.031-7.018a13.434,13.434,0,0,1,12.156.054C389.671,282.446,389.658,285.587,386.292,287.51Z" transform="translate(-369.983 -278.063)" fill="url(#radial-gradient-14)"/>
      <path id="Path_381" data-name="Path 381" d="M374.166,280.849a13.433,13.433,0,0,1,12.155.054,4.392,4.392,0,0,1,2.494,3.315c.1-1.337-.728-2.7-2.492-3.727a13.434,13.434,0,0,0-12.156-.054c-1.773,1.014-2.615,2.366-2.526,3.7A4.395,4.395,0,0,1,374.166,280.849Z" transform="translate(-369.984 -278.063)" fill="#f4a856"/>
      <path id="Path_382" data-name="Path 382" d="M386.925,289.317a16.006,16.006,0,0,1-14.48-.065c-1.908-1.114-2.9-2.551-2.973-4-.1,1.577.892,3.176,2.972,4.388a16,16,0,0,0,14.479.065c2.09-1.195,3.093-2.784,3.01-4.361C389.844,286.792,388.843,288.221,386.925,289.317Z" transform="translate(-369.455 -279.583)" fill="#fce586"/>
    </g>
    <g id="Group_553" data-name="Group 553" transform="translate(36.172 140.575)">
      <path id="Path_383" data-name="Path 383" d="M391.791,279.4l-.564.837a6.632,6.632,0,0,0-2.428-2.259,16,16,0,0,0-14.479-.064,6.686,6.686,0,0,0-2.41,2.176l-.595-.781-.008,1.788,0,0c-.046,1.542.944,3.095,2.976,4.28a16,16,0,0,0,14.48.065c2-1.145,3.01-2.654,3.017-4.167h0Z" transform="translate(-371.288 -273.401)" fill="#f4a856"/>
      <ellipse id="Ellipse_48" data-name="Ellipse 48" cx="5.911" cy="10.239" rx="5.911" ry="10.239" transform="translate(0 11.823) rotate(-89.743)" fill="#fccc6b"/>
      <ellipse id="Ellipse_49" data-name="Ellipse 49" cx="5.911" cy="10.239" rx="5.911" ry="10.239" transform="translate(0 11.823) rotate(-89.743)" fill="url(#radial-gradient-15)"/>
      <path id="Path_384" data-name="Path 384" d="M382.1,283.791a12.553,12.553,0,0,1-6.182-1.489c-1.647-.961-2.551-2.238-2.545-3.6s.921-2.627,2.577-3.573a13.551,13.551,0,0,1,12.243.055c1.647.961,2.551,2.238,2.545,3.595s-.921,2.627-2.577,3.573A12.483,12.483,0,0,1,382.1,283.791Zm-.089-9.921a12.308,12.308,0,0,0-5.975,1.414c-1.6.914-2.484,2.13-2.49,3.422s.868,2.517,2.459,3.446a13.359,13.359,0,0,0,12.07.054c1.6-.914,2.484-2.13,2.489-3.423s-.867-2.516-2.458-3.444A12.374,12.374,0,0,0,382.012,273.87Z" transform="translate(-371.791 -272.788)" fill="#f4a856"/>
      <path id="Path_385" data-name="Path 385" d="M388.147,282.308a13.434,13.434,0,0,1-12.156-.054c-3.348-1.953-3.334-5.1.031-7.018a13.434,13.434,0,0,1,12.156.054C391.526,277.243,391.512,280.385,388.147,282.308Z" transform="translate(-371.819 -272.815)" fill="url(#radial-gradient-16)"/>
      <path id="Path_386" data-name="Path 386" d="M376.021,275.647a13.435,13.435,0,0,1,12.155.054,4.4,4.4,0,0,1,2.495,3.315c.1-1.337-.728-2.7-2.493-3.726a13.434,13.434,0,0,0-12.156-.054c-1.773,1.013-2.615,2.365-2.525,3.7A4.392,4.392,0,0,1,376.021,275.647Z" transform="translate(-371.819 -272.815)" fill="#f4a856"/>
      <path id="Path_387" data-name="Path 387" d="M388.779,284.114a16,16,0,0,1-14.479-.065c-1.909-1.113-2.9-2.551-2.973-4-.1,1.577.891,3.175,2.971,4.388a16,16,0,0,0,14.48.064c2.09-1.195,3.093-2.784,3.01-4.361C391.7,281.59,390.7,283.018,388.779,284.114Z" transform="translate(-371.291 -274.334)" fill="#fce586"/>
    </g>
    <g id="Group_554" data-name="Group 554" transform="translate(43.259 139.901)">
      <path id="Path_388" data-name="Path 388" d="M401.141,280.781l-.724.705a6.63,6.63,0,0,0-1.915-2.708,16,16,0,0,0-14.159-3.027,6.682,6.682,0,0,0-2.805,1.637l-.422-.887-.374,1.749,0,0c-.36,1.5.291,3.223,2.037,4.8a16,16,0,0,0,14.16,3.028c2.2-.711,3.49-1.981,3.806-3.461h0Z" transform="translate(-380.651 -272.475)" fill="#f4a856"/>
      <path id="Path_389" data-name="Path 389" d="M397.46,283.37a16,16,0,0,1-14.159-3.027c-3.428-3.094-2.645-6.754,1.748-8.176a16,16,0,0,1,14.159,3.028C402.635,278.288,401.853,281.948,397.46,283.37Z" transform="translate(-380.776 -271.603)" fill="#fccc6b"/>
      <path id="Path_390" data-name="Path 390" d="M397.46,283.37a16,16,0,0,1-14.159-3.027c-3.428-3.094-2.645-6.754,1.748-8.176a16,16,0,0,1,14.159,3.028C402.635,278.288,401.853,281.948,397.46,283.37Z" transform="translate(-380.776 -271.603)" fill="url(#radial-gradient-17)"/>
      <path id="Path_391" data-name="Path 391" d="M390.758,283.008a12.557,12.557,0,0,1-5.746-2.723c-1.415-1.278-2.039-2.713-1.755-4.04s1.44-2.383,3.254-2.97a13.549,13.549,0,0,1,11.972,2.56c1.415,1.278,2.039,2.712,1.755,4.04s-1.44,2.382-3.254,2.969A12.485,12.485,0,0,1,390.758,283.008Zm1.943-9.729a12.308,12.308,0,0,0-6.137.161c-1.753.567-2.867,1.577-3.137,2.841s.334,2.642,1.7,3.876a13.358,13.358,0,0,0,11.8,2.523c1.753-.567,2.867-1.576,3.138-2.841s-.334-2.64-1.7-3.875A12.384,12.384,0,0,0,392.7,273.279Z" transform="translate(-381.269 -271.894)" fill="#f4a856"/>
      <path id="Path_392" data-name="Path 392" d="M396.986,282.789a13.434,13.434,0,0,1-11.888-2.541c-2.878-2.6-2.22-5.67,1.467-6.864a13.436,13.436,0,0,1,11.888,2.542C401.33,278.523,400.673,281.6,396.986,282.789Z" transform="translate(-381.297 -271.921)" fill="url(#radial-gradient-18)"/>
      <path id="Path_393" data-name="Path 393" d="M386.489,273.787a13.435,13.435,0,0,1,11.887,2.542,4.393,4.393,0,0,1,1.763,3.755c.373-1.288-.16-2.788-1.677-4.157a13.436,13.436,0,0,0-11.888-2.542c-1.943.629-3.043,1.78-3.23,3.108A4.395,4.395,0,0,1,386.489,273.787Z" transform="translate(-381.306 -271.921)" fill="#f4a856"/>
      <path id="Path_394" data-name="Path 394" d="M397.543,284.223a16,16,0,0,1-14.159-3.027c-1.641-1.48-2.314-3.09-2.092-4.522-.418,1.524.222,3.29,2.01,4.9a16,16,0,0,0,14.159,3.027c2.291-.741,3.6-2.092,3.839-3.652C400.917,282.35,399.644,283.543,397.543,284.223Z" transform="translate(-380.777 -272.838)" fill="#fce586"/>
    </g>
    <g id="Group_555" data-name="Group 555" transform="translate(27.429 89.821)">
      <path id="Path_395" data-name="Path 395" d="M380.93,222.351l-.9.452a6.628,6.628,0,0,0-1-3.162,16,16,0,0,0-12.571-7.186,6.679,6.679,0,0,0-3.169.707l-.133-.973-.887,1.552h0c-.8,1.319-.7,3.158.483,5.191a16,16,0,0,0,12.571,7.186c2.308-.01,3.927-.828,4.677-2.141h0Z" transform="translate(-360.218 -207.056)" fill="#f4a856"/>
      <ellipse id="Ellipse_50" data-name="Ellipse 50" cx="5.911" cy="10.239" rx="5.911" ry="10.239" transform="matrix(0.496, -0.868, 0.868, 0.496, 0, 10.264)" fill="#fccc6b"/>
      <ellipse id="Ellipse_51" data-name="Ellipse 51" cx="5.911" cy="10.239" rx="5.911" ry="10.239" transform="matrix(0.496, -0.868, 0.868, 0.496, 0, 10.264)" fill="url(#radial-gradient-19)"/>
      <path id="Path_396" data-name="Path 396" d="M370.348,221.34A12.552,12.552,0,0,1,365.7,217c-.961-1.648-1.118-3.2-.444-4.383s2.095-1.832,4-1.841a13.552,13.552,0,0,1,10.629,6.076c.96,1.648,1.118,3.2.444,4.382s-2.095,1.833-4,1.841A12.486,12.486,0,0,1,370.348,221.34Zm4.807-8.679a12.307,12.307,0,0,0-5.9-1.71c-1.842.008-3.211.63-3.852,1.753s-.485,2.618.443,4.209a13.359,13.359,0,0,0,10.478,5.99c1.842-.008,3.211-.63,3.852-1.754s.485-2.617-.443-4.209A12.379,12.379,0,0,0,375.155,212.66Z" transform="translate(-360.971 -206.712)" fill="#f4a856"/>
      <path id="Path_397" data-name="Path 397" d="M376.358,223.017a13.436,13.436,0,0,1-10.554-6.033c-1.953-3.348-.393-6.076,3.483-6.093a13.435,13.435,0,0,1,10.554,6.032C381.793,220.272,380.234,223,376.358,223.017Z" transform="translate(-361 -206.74)" fill="url(#radial-gradient-20)"/>
      <path id="Path_398" data-name="Path 398" d="M369.18,211.248a13.435,13.435,0,0,1,10.554,6.032,4.4,4.4,0,0,1,.539,4.114c.747-1.114.694-2.706-.334-4.471a13.435,13.435,0,0,0-10.554-6.032c-2.043.008-3.441.771-4.022,1.98A4.393,4.393,0,0,1,369.18,211.248Z" transform="translate(-361.097 -206.74)" fill="#f4a856"/>
      <path id="Path_399" data-name="Path 399" d="M376.744,224.1a16,16,0,0,1-12.571-7.186c-1.113-1.909-1.266-3.646-.619-4.944-.861,1.325-.788,3.2.425,5.283a16,16,0,0,0,12.571,7.186c2.408-.011,4.062-.9,4.767-2.314C380.528,223.34,378.953,224.091,376.744,224.1Z" transform="translate(-360.517 -207.003)" fill="#fce586"/>
    </g>
    <g id="Group_556" data-name="Group 556" transform="translate(27.844 120.848)">
      <path id="Path_400" data-name="Path 400" d="M378.74,249.3l-.078,1.008a6.623,6.623,0,0,0-3.226-.769,16,16,0,0,0-12.629,7.083,6.684,6.684,0,0,0-1.024,3.082l-.9-.387.875,1.56v0c.72,1.363,2.347,2.226,4.7,2.256a16,16,0,0,0,12.629-7.082c1.179-1.985,1.311-3.793.571-5.113h0Z" transform="translate(-360.421 -247.119)" fill="#f4a856"/>
      <path id="Path_401" data-name="Path 401" d="M378.021,253.71a16,16,0,0,1-12.629,7.083c-4.617-.057-6.448-3.322-4.09-7.291a16,16,0,0,1,12.629-7.083C378.549,246.476,380.379,249.741,378.021,253.71Z" transform="translate(-360.273 -246.418)" fill="#fccc6b"/>
      <path id="Path_402" data-name="Path 402" d="M378.021,253.71a16,16,0,0,1-12.629,7.083c-4.617-.057-6.448-3.322-4.09-7.291a16,16,0,0,1,12.629-7.083C378.549,246.476,380.379,249.741,378.021,253.71Z" transform="translate(-360.273 -246.418)" fill="url(#radial-gradient-21)"/>
      <path id="Path_403" data-name="Path 403" d="M372.645,258.317a12.538,12.538,0,0,1-6.113,1.753c-1.907-.023-3.323-.689-3.987-1.874s-.494-2.739.48-4.379a13.552,13.552,0,0,1,10.678-5.988c1.907.024,3.323.689,3.987,1.874s.494,2.739-.48,4.379A12.479,12.479,0,0,1,372.645,258.317Zm-4.969-8.586a12.306,12.306,0,0,0-4.5,4.175c-.941,1.583-1.111,3.077-.478,4.205s1.995,1.762,3.838,1.785a13.358,13.358,0,0,0,10.527-5.9c.941-1.584,1.111-3.077.478-4.205s-1.995-1.762-3.837-1.785A12.365,12.365,0,0,0,367.676,249.731Z" transform="translate(-360.73 -246.761)" fill="#f4a856"/>
      <path id="Path_404" data-name="Path 404" d="M377.165,254.065a13.434,13.434,0,0,1-10.6,5.946c-3.876-.048-5.414-2.788-3.434-6.121a13.435,13.435,0,0,1,10.6-5.946C377.607,247.992,379.145,250.733,377.165,254.065Z" transform="translate(-360.758 -246.789)" fill="url(#radial-gradient-22)"/>
      <path id="Path_405" data-name="Path 405" d="M363.33,254.248a13.435,13.435,0,0,1,10.6-5.946,4.394,4.394,0,0,1,3.8,1.654c-.571-1.214-1.963-1.988-4.006-2.013a13.435,13.435,0,0,0-10.6,5.946c-1.043,1.756-1.108,3.347-.371,4.467A4.394,4.394,0,0,1,363.33,254.248Z" transform="translate(-360.759 -246.789)" fill="#f4a856"/>
      <path id="Path_406" data-name="Path 406" d="M377.95,254.018a16,16,0,0,1-12.629,7.082c-2.21-.027-3.779-.791-4.558-2.012.693,1.419,2.341,2.322,4.749,2.353a16,16,0,0,0,12.629-7.083c1.23-2.07,1.319-3.947.469-5.278C379.245,250.383,379.079,252.119,377.95,254.018Z" transform="translate(-360.393 -247.066)" fill="#fce586"/>
    </g>
  </g>
  <path id="Path_407" data-name="Path 407" d="M295.425,239.727a2.013,2.013,0,0,1-1.008-.269l-26.5-15.3a.484.484,0,0,1,0-.839l23.443-13.534.235.408-23.442,13.534,26.506,15.326a1.547,1.547,0,0,0,1.543,0l15.814-9.1a2.017,2.017,0,0,1,2.021.006l6.473,3.783-.238.406-6.473-3.783a1.544,1.544,0,0,0-1.549,0l-15.814,9.1A2.012,2.012,0,0,1,295.425,239.727Z" transform="translate(-267.67 -116.649)" fill="#fff"/>
  <g id="Group_559" data-name="Group 559" transform="translate(91.121 72.021)">
    <g id="Group_558" data-name="Group 558">
      <path id="Path_408" data-name="Path 408" d="M445,210.369l-24.676-26.5-24.676-2s-3.966,33.452,24.676,68.933C448.965,248.4,445,210.369,445,210.369Z" transform="translate(-389.908 -181.875)" fill="url(#linear-gradient-9)"/>
      <path id="Path_409" data-name="Path 409" d="M393.92,181.875l-5.552,3.205,24.676,2,5.552-3.205Z" transform="translate(-388.181 -181.875)" fill="url(#linear-gradient-10)"/>
      <path id="Path_410" data-name="Path 410" d="M437.66,214.607l-24.677-26.5-10.146-1.025-14.53-.971s-3.966,33.451,24.676,68.932C441.626,252.638,437.66,214.607,437.66,214.607Z" transform="translate(-388.12 -182.907)" fill="url(#linear-gradient-11)"/>
      <path id="Path_411" data-name="Path 411" d="M437.72,214.477l-24.677-26.5-24.676-2,.7-.4,25,2.023,24.676,26.5s3.31,31.791-18.018,39.077C440.923,245.239,437.72,214.477,437.72,214.477Z" transform="translate(-388.18 -182.777)" fill="#fff"/>
    </g>
    <path id="Path_412" data-name="Path 412" d="M435.31,216.076l-22.187-23.824L404,191.33l-13.063-.873s-3.566,30.076,22.186,61.976C438.875,250.269,435.31,216.076,435.31,216.076Z" transform="translate(-388.765 -183.965)" fill="#fff" opacity="0.2"/>
  </g>
</svg>
