<svg id="Group_572" data-name="Group 572" xmlns="http://www.w3.org/2000/svg" xmlns:xlink="http://www.w3.org/1999/xlink" width="167.782" height="184.128" viewBox="0 0 167.782 184.128">
  <defs>
    <linearGradient id="linear-gradient" x1="0.068" y1="0.106" x2="0.916" y2="0.88" gradientUnits="objectBoundingBox">
      <stop offset="0" stop-color="#3a9bd5"/>
      <stop offset="0.305" stop-color="#3a9bd5"/>
      <stop offset="0.356" stop-color="#3a9bd5"/>
      <stop offset="0.599" stop-color="#3999d3"/>
      <stop offset="0.688" stop-color="#3592cf"/>
      <stop offset="0.752" stop-color="#2f86c7"/>
      <stop offset="0.804" stop-color="#2675bb"/>
      <stop offset="0.81" stop-color="#2573ba"/>
    </linearGradient>
    <linearGradient id="linear-gradient-2" x1="6.44" y1="-1.815" x2="6.999" y2="-1.305" gradientUnits="objectBoundingBox">
      <stop offset="0" stop-color="#59bdef"/>
      <stop offset="1" stop-color="#7bdaff"/>
    </linearGradient>
    <linearGradient id="linear-gradient-3" x1="-11.939" y1="0.82" x2="-10.511" y2="1.179" gradientUnits="objectBoundingBox">
      <stop offset="0" stop-color="#2573ba"/>
      <stop offset="0.907" stop-color="#0364ae"/>
      <stop offset="1" stop-color="#0063ad"/>
    </linearGradient>
    <linearGradient id="linear-gradient-4" x1="-32.724" y1="0.5" x2="-31.724" y2="0.5" gradientUnits="objectBoundingBox">
      <stop offset="0" stop-color="#0063ad"/>
      <stop offset="1" stop-color="#2573ba"/>
    </linearGradient>
    <linearGradient id="linear-gradient-5" x1="-12.368" y1="0.896" x2="-11.214" y2="0.896" gradientUnits="objectBoundingBox">
      <stop offset="0" stop-color="#7bdaff"/>
      <stop offset="1" stop-color="#59bdef"/>
    </linearGradient>
  </defs>
  <g id="Group_562" data-name="Group 562" transform="translate(0 71.811)">
    <path id="Path_413" data-name="Path 413" d="M685.882,269.058l-49.263,28.453a8.265,8.265,0,0,1-7.435.308L521.206,235.478c-1.906-1.1-1.667-3.022.534-4.293L571,202.732a8.265,8.265,0,0,1,7.435-.308l107.978,62.341C688.321,265.866,688.082,267.787,685.882,269.058Z" transform="translate(-519.92 -186.245)" fill="#13247a" opacity="0.5"/>
    <path id="Path_414" data-name="Path 414" d="M687.7,247.042l-10.149-1.766L578.438,188.05a8.263,8.263,0,0,0-7.435.309l-45.914,26.52-5.168-.9v5.25h.005a2.2,2.2,0,0,0,1.281,1.875l107.978,62.341a8.265,8.265,0,0,0,7.435-.308l49.263-28.454a3.023,3.023,0,0,0,1.817-2.466h0Z" transform="translate(-519.92 -182.092)" fill="url(#linear-gradient)"/>
    <path id="Path_415" data-name="Path 415" d="M685.882,247.35,636.619,275.8a8.26,8.26,0,0,1-7.435.308L521.206,213.77c-1.906-1.1-1.667-3.022.534-4.293L571,181.024a8.265,8.265,0,0,1,7.435-.308l107.978,62.341C688.321,244.158,688.082,246.079,685.882,247.35Z" transform="translate(-519.92 -179.974)" fill="url(#linear-gradient-2)"/>
    <path id="Path_416" data-name="Path 416" d="M685.884,259.518l-49.263,28.453a8.265,8.265,0,0,1-7.435.308L521.208,225.938a2.377,2.377,0,0,1-1.251-1.52,2.094,2.094,0,0,0,1.251,2.192L629.186,288.95a8.26,8.26,0,0,0,7.435-.308l49.263-28.453c1.369-.791,1.978-1.833,1.784-2.773A3.333,3.333,0,0,1,685.884,259.518Z" transform="translate(-519.922 -192.813)" fill="#fff"/>
    <path id="Path_417" data-name="Path 417" d="M686.665,243.2l-57.231,33.054-107.059-61.81,57.232-33.054Z" transform="translate(-520.629 -180.383)" fill="#0f65b2"/>
    <path id="Path_418" data-name="Path 418" d="M563.849,199.262l-7.6,4.389a1.241,1.241,0,0,1-1.116.046l-.077-.045c-.286-.165-.25-.453.08-.644l7.6-4.389a1.237,1.237,0,0,1,1.115-.046l.077.044C564.215,198.783,564.179,199.071,563.849,199.262Z" transform="translate(-530.014 -185.315)" fill="#0063ad"/>
    <g id="Group_561" data-name="Group 561" transform="translate(12.455 30.225)">
      <path id="Path_419" data-name="Path 419" d="M540.668,228.1l-.96.554-2.273-1.312.96-.554Z" transform="translate(-537.435 -223.722)" fill="#fff"/>
      <path id="Path_420" data-name="Path 420" d="M543.154,226.661l-.96.554-2.273-1.312.96-.554Z" transform="translate(-538.153 -223.307)" fill="#fff"/>
      <path id="Path_421" data-name="Path 421" d="M545.64,225.226l-.96.554-2.273-1.313.96-.554Z" transform="translate(-538.871 -222.892)" fill="#fff"/>
      <path id="Path_422" data-name="Path 422" d="M548.127,223.79l-.96.554-2.273-1.313.96-.554Z" transform="translate(-539.589 -222.478)" fill="#fff"/>
    </g>
  </g>
  <g id="Group_563" data-name="Group 563" transform="translate(17.346 8.06)">
    <path id="Path_423" data-name="Path 423" d="M593.764,90.324a3.382,3.382,0,1,1-3.382,3.382A3.382,3.382,0,0,1,593.764,90.324Z" transform="translate(-557.622 -90.324)" fill="#fff"/>
    <path id="Path_424" data-name="Path 424" d="M578.408,90.324a3.382,3.382,0,1,1-3.383,3.382A3.382,3.382,0,0,1,578.408,90.324Z" transform="translate(-553.185 -90.324)" fill="#84e4a4"/>
    <path id="Path_425" data-name="Path 425" d="M563.052,90.324a3.382,3.382,0,1,1-3.383,3.382A3.382,3.382,0,0,1,563.052,90.324Z" transform="translate(-548.749 -90.324)" fill="#84e4a4" opacity="0.5"/>
    <path id="Path_426" data-name="Path 426" d="M547.7,90.324a3.382,3.382,0,1,1-3.382,3.382A3.382,3.382,0,0,1,547.7,90.324Z" transform="translate(-544.313 -90.324)" fill="#84e4a4" opacity="0.1"/>
  </g>
  <ellipse id="Ellipse_52" data-name="Ellipse 52" cx="19.132" cy="11.046" rx="19.132" ry="11.046" transform="translate(53.22 101.761)" fill="#041860" opacity="0.6"/>
  <path id="Path_427" data-name="Path 427" d="M609.572,247.887c-7.6,0-15.209-1.672-21-5.014-5.657-3.266-8.773-7.624-8.773-12.271s3.115-9,8.772-12.27c11.579-6.684,30.418-6.684,42,0,5.657,3.266,8.773,7.624,8.773,12.271s-3.115,9-8.772,12.27C624.78,246.215,617.176,247.887,609.572,247.887Zm0-34.066c-7.513,0-15.024,1.651-20.743,4.953-5.493,3.17-8.518,7.371-8.518,11.828s3.025,8.658,8.518,11.829c11.438,6.6,30.048,6.6,41.485,0,5.493-3.172,8.518-7.372,8.518-11.829s-3.025-8.658-8.518-11.829C624.6,215.472,617.083,213.821,609.572,213.821Z" transform="translate(-537.218 -117.795)" fill="#fff"/>
  <g id="Group_566" data-name="Group 566" transform="translate(63.882 0)">
    <path id="Path_428" data-name="Path 428" d="M695.959,126.7,613.851,79.3a1.635,1.635,0,0,0-1.673-.132v0l-1.22.713.565.08a3.257,3.257,0,0,0-.232,1.28V137.8a6.131,6.131,0,0,0,2.56,4.891L695.959,190.1a2.483,2.483,0,0,0,.454.206v.641l1.227-.715h-.007a2.264,2.264,0,0,0,.887-2.068V131.592A6.131,6.131,0,0,0,695.959,126.7Z" transform="translate(-610.101 -78.99)" fill="#fff"/>
    <path id="Path_429" data-name="Path 429" d="M694.421,191.074l-82.108-47.405a6.131,6.131,0,0,1-2.56-4.891V82.206c0-1.885,1.146-2.751,2.56-1.936l82.108,47.406a6.131,6.131,0,0,1,2.56,4.891v56.572C696.981,191.025,695.835,191.891,694.421,191.074Z" transform="translate(-609.753 -79.271)" fill="#84e4a4"/>
    <g id="Group_564" data-name="Group 564" transform="translate(60.184 43.267)">
      <path id="Path_430" data-name="Path 430" d="M694.386,147.908v-8.075l1.712.989a5.566,5.566,0,0,1,.845.587,3.857,3.857,0,0,1,.641.7,2.927,2.927,0,0,1,.424.886,3.708,3.708,0,0,1,.139,1.068q0,1.494-1.03,1.077a3.169,3.169,0,0,1,.927,1.161,3.719,3.719,0,0,1,.309,1.555q0,1.152-.5,1.458t-1.463-.248Zm1.274-4.048.4.23q.561.322.772.168c.14-.1.211-.375.211-.814a2.225,2.225,0,0,0-.07-.593,1.227,1.227,0,0,0-.234-.454,2.025,2.025,0,0,0-.365-.351,5.642,5.642,0,0,0-.534-.343l-.177-.1Zm0,3.745.468.27c.38.219.644.27.789.149s.219-.415.219-.886a2.587,2.587,0,0,0-.246-1.2,2.061,2.061,0,0,0-.829-.806l-.4-.232Z" transform="translate(-694.386 -139.833)" fill="#fff"/>
      <path id="Path_431" data-name="Path 431" d="M700.608,151.833l1.422-7.254,1.328.767,1.417,8.893-1.185-.684-.282-2.039-1.21-.7-.287,1.71Zm1.624-1.9.937.54-.469-3.587Z" transform="translate(-696.183 -141.204)" fill="#fff"/>
      <path id="Path_432" data-name="Path 432" d="M707.436,155.442v-8.075l.877.506,1.713,5.563v-4.574l1.054.608v8.075l-.835-.482-1.729-5.806v4.807Z" transform="translate(-698.156 -142.009)" fill="#fff"/>
      <path id="Path_433" data-name="Path 433" d="M714.032,159.25v-8.075l1.274.736v3.507l1.375-2.714,1.215.7-1.336,2.842,1.476,5.313-1.27-.733-1.206-4.494-.253.379v3.274Z" transform="translate(-700.061 -143.11)" fill="#fff"/>
    </g>
    <g id="Group_565" data-name="Group 565" transform="translate(7.083 53.194)">
      <path id="Path_434" data-name="Path 434" d="M635.3,164.875l-15.586-9v-2.083l15.586,9Z" transform="translate(-619.714 -153.793)" fill="#fff"/>
      <path id="Path_435" data-name="Path 435" d="M662.242,180.429l-15.586-9v-2.083l15.586,9Z" transform="translate(-627.497 -158.287)" fill="#fff"/>
      <path id="Path_436" data-name="Path 436" d="M689.183,195.984l-15.586-9V184.9l15.586,9Z" transform="translate(-635.28 -162.78)" fill="#fff"/>
      <path id="Path_437" data-name="Path 437" d="M716.124,211.538l-15.586-9v-2.083l15.586,9Z" transform="translate(-643.063 -167.274)" fill="#fff"/>
    </g>
  </g>
  <path id="Path_438" data-name="Path 438" d="M628.22,111.089,609.753,109.6v37.743a6.133,6.133,0,0,0,2.56,4.892l35.53,20.513c9.183-13.013,7.108-32.95,7.108-32.95Z" transform="translate(-545.871 -87.831)" fill="#041860" opacity="0.2"/>
  <g id="Group_568" data-name="Group 568" transform="translate(43.085 25.499)">
    <g id="Group_567" data-name="Group 567">
      <path id="Path_439" data-name="Path 439" d="M642.629,145.714,615.9,117.01l-26.731-2.163s-4.3,36.236,26.731,74.671C646.924,186.911,642.629,145.714,642.629,145.714Z" transform="translate(-582.951 -114.848)" fill="url(#linear-gradient-3)"/>
      <path id="Path_440" data-name="Path 440" d="M586.806,114.848l-6.014,3.472,26.731,2.163,6.014-3.472Z" transform="translate(-580.59 -114.848)" fill="url(#linear-gradient-4)"/>
      <path id="Path_441" data-name="Path 441" d="M634.171,150.6l-26.73-28.7-10.992-1.111-15.739-1.052s-4.3,36.236,26.731,74.671C638.467,191.794,634.171,150.6,634.171,150.6Z" transform="translate(-580.508 -116.259)" fill="url(#linear-gradient-5)"/>
      <path id="Path_442" data-name="Path 442" d="M634.253,150.42l-26.731-28.7-26.73-2.163.755-.437,27.086,2.192,26.731,28.7s3.586,34.439-19.519,42.331C637.723,183.743,634.253,150.42,634.253,150.42Z" transform="translate(-580.59 -116.081)" fill="#fff"/>
    </g>
    <path id="Path_443" data-name="Path 443" d="M631.808,152.488l-24.034-25.806-9.882-1-14.151-.946s-3.863,32.581,24.033,67.137C635.67,189.529,631.808,152.488,631.808,152.488Z" transform="translate(-581.389 -117.705)" fill="#fff" opacity="0.2"/>
  </g>
  <g id="Group_569" data-name="Group 569" transform="translate(50.568 39.645)">
    <rect id="Rectangle_352" data-name="Rectangle 352" width="1.336" height="1.336" transform="translate(0.945 1.713) rotate(45)" fill="#fff"/>
    <rect id="Rectangle_353" data-name="Rectangle 353" width="1.336" height="1.336" transform="matrix(0.707, 0.707, -0.707, 0.707, 4.359, 1.701)" fill="#fff"/>
    <rect id="Rectangle_354" data-name="Rectangle 354" width="1.336" height="1.336" transform="translate(2.658 0) rotate(45)" fill="#fff"/>
    <rect id="Rectangle_355" data-name="Rectangle 355" width="1.336" height="1.336" transform="matrix(0.707, 0.707, -0.707, 0.707, 2.646, 3.414)" fill="#fff"/>
  </g>
  <g id="Group_570" data-name="Group 570" transform="translate(141.956 24.022)">
    <path id="Path_444" data-name="Path 444" d="M731.132,126.009l-1.945-1.945,4.674-4.675-4.674-4.674,1.945-1.945,6.62,6.619Zm-1.168-1.945,1.168,1.168,5.843-5.843-5.843-5.843-1.168,1.168,4.674,4.674Z" transform="translate(-722.33 -112.77)" fill="#fff"/>
    <path id="Path_445" data-name="Path 445" d="M721.1,113.316l-1.557,1.557,4.674,4.674-4.674,4.674,1.557,1.557,4.674-4.674,1.557-1.557Z" transform="translate(-719.545 -112.928)" fill="#84e4a4" opacity="0.5"/>
  </g>
  <g id="Group_571" data-name="Group 571" transform="translate(94.626 124.482)">
    <path id="Path_446" data-name="Path 446" d="M678.027,284.175a.374.374,0,0,1-.029-.747,38.5,38.5,0,0,0,15.893-4.821c5-2.889,8-5.765,8.907-8.549a.374.374,0,0,1,.711.232c-.966,2.964-4.075,5.98-9.244,8.964a39.26,39.26,0,0,1-16.208,4.919Z" transform="translate(-660.113 -258.594)" fill="#fff"/>
    <path id="Path_447" data-name="Path 447" d="M701.871,263.988a.373.373,0,0,1-.373-.36c-.08-2.216-1.693-4.294-4.664-6.009-6.57-3.794-15.138-3.773-24.127.057a.374.374,0,0,1-.293-.688c9.21-3.923,18.015-3.929,24.793-.016,3.206,1.851,4.948,4.143,5.038,6.629a.373.373,0,0,1-.36.387Z" transform="translate(-658.534 -254.041)" fill="#fff"/>
    <path id="Path_448" data-name="Path 448" d="M665.206,280.335h-.036a19.871,19.871,0,0,1-7.992-2.291A7.977,7.977,0,0,1,653,272.813a.964.964,0,0,1,.239-.829,2.292,2.292,0,0,1,1.831-.621,1.782,1.782,0,0,1,1.72,1,6.311,6.311,0,0,0,3.159,3.644c5.835,3.369,17.071,2.362,25.048-2.243,5.147-2.972,7.868-6,7.868-8.76,0-1.942-1.378-3.765-3.984-5.269-6.724-3.882-15.854-3.065-25.047,2.242-3.317,1.915-5.7,4.261-6.7,6.606a1.728,1.728,0,0,1-1.6.831,1.955,1.955,0,0,1-1.687-.693.847.847,0,0,1-.051-.85c1.354-2.744,4.085-5.358,7.9-7.56a.374.374,0,0,1,.374.647c-3.685,2.127-6.313,4.632-7.6,7.243a.1.1,0,0,0,.011.116,1.292,1.292,0,0,0,1.038.348,1.094,1.094,0,0,0,.935-.377c1.065-2.493,3.554-4.964,7.01-6.96,9.431-5.445,18.833-6.262,25.8-2.242,2.851,1.646,4.358,3.692,4.358,5.917,0,3.085-2.773,6.25-8.242,9.407-8.183,4.725-19.755,5.73-25.795,2.243a7.12,7.12,0,0,1-3.5-4.086c-.056-.2-.47-.429-1.041-.459a1.592,1.592,0,0,0-1.226.364c-.089.1-.075.169-.07.193a7.257,7.257,0,0,0,3.814,4.728,19.139,19.139,0,0,0,7.689,2.194.373.373,0,0,1-.034.745Z" transform="translate(-652.987 -254.771)" fill="#fff"/>
    <path id="Path_449" data-name="Path 449" d="M682.7,278.432a2.053,2.053,0,0,1-1.491-.55A.884.884,0,0,1,681,277a1.44,1.44,0,0,1,1.152-.84,23.837,23.837,0,0,0,7.1-2.649c3.455-1.994,5.411-3.987,5.658-5.762a2.874,2.874,0,0,0-.914-2.461.937.937,0,0,1-.272-.885,1.4,1.4,0,0,1,.971-.913,2.6,2.6,0,0,1,2.576.438,4.533,4.533,0,0,1,1.388,3.541c-.144,1.846-1.48,3.755-3.97,5.678a.374.374,0,1,1-.457-.592c2.316-1.787,3.555-3.518,3.681-5.144a3.819,3.819,0,0,0-1.186-2.969,1.916,1.916,0,0,0-1.784-.247c-.324.114-.468.276-.492.379,0,.022-.021.09.081.194a3.584,3.584,0,0,1,1.118,3.085c-.284,2.04-2.311,4.162-6.025,6.307a24.627,24.627,0,0,1-7.328,2.734c-.353.071-.554.227-.592.341-.006.019-.021.065.055.149a1.529,1.529,0,0,0,1.318.264,28.116,28.116,0,0,0,8.058-3.047.374.374,0,1,1,.374.647,28.864,28.864,0,0,1-8.274,3.131A2.61,2.61,0,0,1,682.7,278.432Z" transform="translate(-661.066 -256.726)" fill="#fff"/>
    <path id="Path_450" data-name="Path 450" d="M671.048,277.774h-.088a14.77,14.77,0,0,1-6.845-1.661,5.258,5.258,0,0,1-3-4.583c0-2.833,2.482-5.958,6.638-8.357,6.585-3.8,13.164-5.023,18.526-3.44a1.5,1.5,0,0,1,1.094.913.936.936,0,0,1-.22.9h0a2.553,2.553,0,0,1-2.492.5c-3.831-1.149-8.667-.336-13.618,2.288-.186.1-.253.2-.254.261s.083.161.214.238a1.789,1.789,0,0,0,1.533.02c4.924-2.6,9.511-3.077,12.585-1.3a3.208,3.208,0,0,1,1.894,2.708c0,1.736-1.705,3.6-5.067,5.542-4.608,2.66-10.682,3.483-13.541,1.832a2.945,2.945,0,0,1-1.564-2.1,4.614,4.614,0,0,1,1.535-3.68c.068-.073.059-.114.056-.128-.017-.076-.129-.193-.343-.282a1.667,1.667,0,0,0-1.6.18,5.223,5.223,0,0,0-1.719,4.1,3.487,3.487,0,0,0,1.905,2.473,10.252,10.252,0,0,0,4.473,1.151c.954.054,1.643.529,1.673,1.156a.955.955,0,0,1-.292.742A2.1,2.1,0,0,1,671.048,277.774Zm10.37-17.971a27.079,27.079,0,0,0-13.287,4.016c-3.922,2.264-6.264,5.147-6.264,7.71a4.553,4.553,0,0,0,2.622,3.936,14.041,14.041,0,0,0,6.5,1.561,1.418,1.418,0,0,0,1.019-.3.231.231,0,0,0,.08-.154c-.009-.191-.382-.44-.97-.474a10.987,10.987,0,0,1-4.8-1.249,4.248,4.248,0,0,1-2.271-3.007,5.929,5.929,0,0,1,1.909-4.723,2.362,2.362,0,0,1,2.433-.363,1.209,1.209,0,0,1,.787.811.875.875,0,0,1-.236.8,3.979,3.979,0,0,0-1.345,3.061,2.2,2.2,0,0,0,1.2,1.565c2.652,1.531,8.393.709,12.794-1.832,3.026-1.747,4.693-3.485,4.693-4.895a2.487,2.487,0,0,0-1.52-2.061c-2.847-1.643-7.17-1.164-11.862,1.316a2.52,2.52,0,0,1-2.256-.033,1.041,1.041,0,0,1-.588-.9,1.086,1.086,0,0,1,.651-.908c5.125-2.718,10.161-3.551,14.182-2.345a1.852,1.852,0,0,0,1.713-.277h0c.094-.107.074-.174.067-.2-.037-.127-.233-.3-.588-.405A16.389,16.389,0,0,0,681.418,259.8Zm5.456,1.494h0Z" transform="translate(-655.336 -255.49)" fill="#fff"/>
    <path id="Path_451" data-name="Path 451" d="M676.309,274.936a4.482,4.482,0,0,1-2.212-.472,1.671,1.671,0,0,1-.915-1.489c0-1.336,1.439-2.965,3.85-4.357,3.912-2.259,7.329-2.876,9.378-1.694a1.879,1.879,0,0,1,1.091,1.589c.029,1.09-.986,2.315-3.019,3.639a2.489,2.489,0,0,1-2.376.042,1.055,1.055,0,0,1-.587-.861.994.994,0,0,1,.511-.854c1.631-1.059,1.63-1.5,1.63-1.5-.455-.264-1.83-.039-4.32,1.4-1.727,1-2.441,1.852-2.439,2.088a.373.373,0,0,1-.371.375h0a.373.373,0,0,1-.373-.371c-.008-1.03,2.151-2.357,2.812-2.739,1.71-.987,3.97-2.037,5.034-1.42a.757.757,0,0,1,.407.646c.009.366-.184.987-1.97,2.145-.107.07-.173.149-.171.208s.058.143.215.233a1.755,1.755,0,0,0,1.594-.021c2.36-1.539,2.692-2.536,2.679-2.994a1.192,1.192,0,0,0-.718-.962c-.856-.494-3.411-1.318-8.629,1.694-2.112,1.22-3.477,2.676-3.477,3.71a.937.937,0,0,0,.542.842c.908.523,2.692.494,4.772-.079a.374.374,0,1,1,.2.72A12.053,12.053,0,0,1,676.309,274.936Z" transform="translate(-658.821 -257.593)" fill="#fff"/>
  </g>
  <path id="Path_452" data-name="Path 452" d="M664.78,257.851a.238.238,0,0,1-.119-.032l-9.845-5.683a.237.237,0,0,1,.238-.411l9.845,5.683a.238.238,0,0,1-.119.443Z" transform="translate(-558.855 -128.881)" fill="#fff"/>
</svg>
